<svg xmlns="http://www.w3.org/2000/svg" viewBox="0 0 1600 1000" role="img" aria-labelledby="title desc">
  <title id="title">Puff makes the first raindrop</title><desc id="desc">A sparkling raindrop falls from Puff onto a thirsty yellow flower as Milo encourages Puff.</desc>
  <rect width="1600" height="1000" fill="#c6e5d0"/><path d="M0 720 Q350 570 760 730 T1600 700 V1000 H0Z" fill="#79a96f"/>
  <path d="M760 190 C810 125 910 140 940 200 C1015 160 1110 225 1080 285 C1140 330 1080 400 1010 390 H760 C690 380 690 250 760 250Z" fill="#fffdf6" stroke="#c8e1eb" stroke-width="14"/>
  <circle cx="850" cy="270" r="14" fill="#334c5c"/><circle cx="970" cy="270" r="14" fill="#334c5c"/><path d="M890 315 Q910 335 935 315" fill="none" stroke="#334c5c" stroke-width="9" stroke-linecap="round"/>
  <path d="M910 390 Q900 440 910 485" stroke="#65bde0" stroke-width="18" stroke-linecap="round"/><path d="M910 485 C885 520 885 550 910 570 C935 550 935 520 910 485Z" fill="#65bde0"/>
  <path d="M910 720 Q900 580 910 530" stroke="#5a8d51" stroke-width="18"/><path d="M910 610 C800 540 740 630 820 690 C850 710 885 700 910 670 C935 700 970 710 1000 690 C1080 630 1020 540 910 610Z" fill="#f2c94c" stroke="#d9a83c" stroke-width="10"/>
  <g transform="translate(380 620) scale(.55)"><ellipse cx="180" cy="300" rx="155" ry="110" fill="#e77b4f"/><path d="M70 230 L65 30 L155 105 L235 55 L300 235Z" fill="#e77b4f"/><ellipse cx="185" cy="175" rx="86" ry="72" fill="#fff0d2"/><path d="M80 235 Q180 270 280 235" fill="none" stroke="#5a9b70" stroke-width="28"/></g>
</svg>
